<?xml version="1.0" encoding="UTF-8"?>
<svg id="Layer_1" data-name="Layer 1" xmlns="http://www.w3.org/2000/svg" viewBox="0 0 292.28 288.57">
  <defs>
    <style>
      .cls-1 {
        fill: none;
        stroke: #ed4e8b;
        stroke-miterlimit: 10;
        stroke-width: 2px;
      }

      .cls-2 {
        fill: #ed4e8b;
      }
    </style>
  </defs>
  <g>
    <path class="cls-1" d="M129.31,47.32c-2.26,.54-4.65,3.36-6.26,4.59-1.99,1.52-4.98,3.61-6.25,5.86-1.64,2.92-.35,5.43-3.17,7.72-3.11,2.52-4.57,3.06-5.59,7.28-1.6,6.64-.78,14.15,5.16,18.3,1.54,1.08,3.1,1.79,4.88,2.62,2.74,1.28,4.7,3.22,7.29,4.78,3.06,1.85,5.58,2.45,8.93,3.4,1.33,.38,2.42,1.08,3.88,1.4,1.72,.37,3.79-.18,5.43,.29,2.85,.81,5.72,3.62,8.29,4.82-5.33-4.65-8.15-12.93-10-19.49-1.67-5.92-3.75-11.72-5.53-17.59-2.47-8.15-3.8-16.47-6.03-24.49-.4,.03-.93,.07-1.02,.53Z"/>
    <path class="cls-1" d="M115.11,64.64c.03,8.03,1.93,17.16,5.62,24.24,1.46,2.79,3.44,6.06,3.46,9.28"/>
    <path class="cls-1" d="M233.26,19.48c6.03,.7,11.92,4.35,15.92,8.78,3.63,4.03,2.64,7.46,4.25,11.95,10.84,.62,20.22,18.36,13.07,27.27,3.89,1.97,6.54,5.91,10.23,8.24,1.9,1.21,3.68,2.3,5.4,3.89,2.76,2.54,5.14,4.87,6.82,8.25s2.65,8.29,2.26,12.01c-.32,3.09-1.87,4.15-1,7.18,1.49,5.2-.26,5.71-2.91,9.82-1.69,2.62-.38,6.07-1.99,8.55-1.76,2.71-7.78,1.41-11.23,1.41s-8.29,.83-11.71-.06c-2.73-.71-4.72-2.73-6.88-4.2-3.07-2.1-5.62-2.26-9.44-2.26-4.15,.97-8.31,2.68-12.44,3.41-3.4,.6-7.09,.28-10.56,.28-2.34,.95-4.18,2.86-6.25,3.71-1.9,.78-5.03,.32-7.11,.27-5.76-.13-10.05-3.41-14.48-6.25-9.07,0-17.55-1.36-26.13-3.46-3.65-.89-6.52-2.91-9.58-4.72-2.26-1.33-6.84-2.07-7.74-4.6"/>
    <path class="cls-1" d="M129.59,47.03c-.22-5.18,4.24-12.77,8.76-15.1,2.23-4.62,9.79-3.27,13.92-3.73,.2-4.97,5.94-11.44,9.4-14.6,5.87-5.36,11.65-9.44,19.45-11.29,6.96-1.65,15.4-1.27,22.57-1.3s14.49,3.5,20.05,8.24c3.73,3.18,6.65,7.27,10.37,10.51"/>
    <path class="cls-1" d="M170.49,118.61c-6.6-10.7-13.57-20.55-17.26-32.39-4.47-14.33-5.17-28.64-5.17-43.59,0-4.71,.96-9.32,2.56-13.49"/>
    <path class="cls-1" d="M232.41,18.35c-8.79,0-17.69-.78-26.18,1.49-6.73,1.8-13.97,5.04-19.98,8.33-4.98,2.73-7.11,8.05-10.35,12.2-4.2,5.39-6.47,12.68-8.6,19.27-1.17,3.64-.59,7.21-.78,10.96-.08,1.64,.09,5.8-.87,6.54"/>
    <path class="cls-1" d="M187.25,120.6c-1.36-2.13-3.54-4.16-5.08-5.96-2.85-3.34-4.47-6.6-6.06-10.82-3.78-10.03-1.34-18.43,1.49-28.69,3.41-12.34,9.35-23.8,20.32-30.9,8.17-5.29,19.58-9.12,29.42-9.12,3.7,0,6.91,.11,10.51,1.03,4.57,1.16,9.55,3.1,14.16,3.8-6.78,.05-13.8,1.52-19.86,4.61-4.04,2.05-7.53,4.71-11.25,7.28-7.3,5.06-13.46,10.72-18.6,17.95-3.34,4.7-8.44,10.43-8.52,16.74"/>
    <path class="cls-1" d="M266.21,54.42c-9.25,0-17.11,.56-25.26,5.22-5.95,3.4-11.76,6.11-16.52,11.32-9.6,10.53-19.59,30.68-13.61,45.1"/>
    <path class="cls-1" d="M265.92,69.19c-9.58,0-22.3,1.48-28.56,9.48-4.39,5.61-5.94,11.72-8.22,18.4-1.8,5.25-2.13,9.46-2.13,15.01"/>
    <path class="cls-1" d="M290.35,102.99c-3.52-1.14-6.41-3.7-9.59-5.04-3.7-1.55-8.64-2.25-12.64-1.44-4.57,.92-9.68,4.2-12.87,7.44-2.22,2.25-4.82,5.71-6.66,8.25-1.11,1.54-2.34,3.8-2.83,5.55"/>
  </g>
  <g>
    <path class="cls-2" d="M32.87,151.52c-1.83,.66-3.58,1.41-5.41,1.93-1.63,.47-3.33,.91-5.01,1.01-5.87,.37-11.6,1.19-16.85,4.07-.92,.5-1.77,1.21-2.64,1.82,.05,.15,.08,.3,.13,.45,.5,.1,1.01,.29,1.53,.3,9.77,.25,19.44,1.38,29.11,2.83,6.39,.96,12.9,1.19,19.37,1.63,1.65,.12,3.31-.17,4.96-.3,4.42-.32,8.83-.79,13.25-.98,7.77-.32,15.54-.49,23.29-.69,1.43-.03,2.27-.3,2.32-2.14,.08-3.18,2.83-5.87,6-6.39,.22-.03,.52-.12,.66,0,1.95,1.48,3.26-.39,4.79-.96,.3-.12,.61-.5,.74-.84,.69-1.82,1.65-3.38,3.77-3.95v-.54c-.62-.17-1.4-.66-1.83-.44-1.6,.77-2.42,0-3.11-1.24-.37-.67-.74-1.38-.94-2.12-.39-1.35-1.21-1.53-2.25-.91-1.4,.82-2.71,1.14-4.22,.24-.25-.15-1.08,.24-1.33,.61-.4,.57-.42,1.41-.84,1.97-.35,.45-1.16,1.01-1.55,.87-.52-.18-1.03-.91-1.21-1.51-.2-.62-.05-1.38-.05-2.07-.17-.07-.35-.15-.52-.22-1.09,1.23-2.17,2.47-3.26,3.7-.18-.13-.37-.29-.55-.42,.59-.94,1.09-1.95,1.78-2.81,1.14-1.38,.71-2.71,.05-4.02-.67-1.33-1.7-2.03-3.31-2.07-2.79-.05-5.45-.18-7.85,1.83-2.49,2.09-2.61,1.93-.89,5.15,.76-.35,1.53-.74,2.32-1.08,.99-.42,1.68-.2,2.05,.92,.17,.49,.61,1.13,1.04,1.26,2.57,.77,2.59,.72,2.07,3.38,.1,.05,.24,.15,.29,.13,2.25-1.45,3.72-.24,5.23,1.38,.89,.94,2.1,1.6,3.16,2.37,.72,.54,1.46,1.06,2.19,1.58-.08,.18-.15,.37-.24,.54-.54-.07-1.21,.03-1.56-.25-1.55-1.23-3.16-2.44-4.46-3.92-1.87-2.14-1.85-2.27-4.44-1.19-.98,.4-1.92,.89-2.91,1.23-.54,.18-1.23,.27-1.7,.07-.25-.12-.27-.96-.24-1.46,.08-1.6,.27-3.19,.39-4.79,0-.13-.13-.29-.2-.42-2.12,.08-4.09,2.05-4.91,4.89,2.4,1.08,2.29,1.11,3.23,3.75,.81,2.24,1.95,4.34,2.88,6.54,.18,.45,.03,1.04,.03,1.58-.52-.22-1.31-.32-1.5-.71-.71-1.5-1.75-1.55-3.14-1.19-1.18,.3-2.4,.4-3.62,.45-.39,0-.79-.42-1.19-.64,.35-.27,.69-.72,1.08-.76,1.14-.12,2.32-.07,3.46-.08h1.9c-.77-2.17-1.4-4.15-2.19-6.07-.15-.37-.91-.67-1.4-.67-2.69,.05-5.8-.59-7.97,.54-3.09,1.61-6.69,2.07-9.47,4.27-.25,.2-.44,.47-.77,.81,1.58,1.58,3.3-.92,4.76,.27-.81,1.24-3.28,1.8-4.79,1.35-2.17-.66-4.22-1.41-6.63-.08-1.97,1.08-4.44,1.19-6.73,.5-.34-.1-.52-.89-.66-1.4-.12-.4-.05-.86-.07-1.28-.39,.25-.77,.5-1.16,.74-1.04,.62-2.05,1.63-3.16,1.78-2.03,.27-2.74-1.19-1.95-2.61,.42,.54,.86,1.66,1.53,1.83,1.5,.37,2.3-.87,2.76-2.1,.13-.35-.44-.98-.89-1.5,.44-1.41,1.68-.71,2.25-.69,1.19-.91,2.02-1.75,2.99-2.19,.49-.22,1.56,.12,1.87,.55,.29,.4,.07,1.35-.18,1.95-.22,.54-.82,.89-1.14,1.4-.34,.52-.52,1.13-.77,1.68,.61,.22,1.23,.67,1.8,.61,1.82-.22,3.63-.62,5.97-1.06-1.19-2.03-1.95-3.68-3.04-5.1-1.68-2.17-3.77-3.67-6.83-3.13-.92,.17-1.98-.13-2.93-.44-1.6-.52-3.08-.37-4.17,.81-1.53,1.65-2.88,3.48-4.24,5.3-.87,1.16-.4,1.93,.89,2.34,.72,.22,1.46,.44,2.57,.77-.84,.12-1.31,.22-1.78,.25-1.36,.08-2.74,.22-4.1,.2-.49,0-.98-.34-1.46-.52,.24-.37,.49-.74,.72-1.11,.35-.54,.71-1.09,1.08-1.63,1.58-2.25,2.99-4.66,4.83-6.69,1.7-1.88,3.97-2.56,6.52-1.38,.67,.3,1.53,.24,2.42,.34-.54-2.07,.29-3.63,2.52-4.71,1.58-.76,3.3-1.29,4.98-1.78,.4-.12,1.01,.27,1.46,.52,.64,.37,1.24,.82,1.72,1.16,.89-1.35,1.45-2.69,2.42-3.58,2.07-1.88,4.79-2.51,7.47-2.94,1.87-.3,3.56-.72,4.98-2.03,1.13-1.06,2.24-1.14,3.3,.12,.66,.79,1.18,.72,1.88-.03,1.82-1.95,4-1.82,5.53,.5,.89,1.33,1.85,1.87,3.4,1.73,1.16-.12,2.32,.03,3.5,.07,2.81,.05,4.3,1.36,5.21,4,.37,1.06,1.45,1.85,2.39,3.01,1.35-1.87,2.66-2.19,4.25-.89,.34,.27,1.14,.03,1.72-.1,.76-.17,1.45-.59,2.2-.69,1.8-.25,2.54,.25,2.99,2.05,.35,1.35,.81,1.98,2.51,2.14,1.68,.15,3.36,1.35,4.81,2.4,.96,.71,1.82,1.04,2.99,1.06,4.39,.07,8.79-.08,13.13,.44,3.48,.42,6.91,1.55,10.27,2.64,2.34,.76,3.5,2.67,3.38,5.18-.22,4.37-.57,8.73-.72,13.1-.07,2.03,.17,4.09,.27,6.14,.22,4.76,.45,9.52,.61,14.28,.02,.74-.34,1.48-.54,2.22-.25,.99-.76,1.98-.71,2.96,.24,4.09-.37,8.05-1.13,12.06-.44,2.25-.35,4.61-.52,6.91-.15,2.09-.29,4.19-.54,6.26-.45,3.73-1.09,7.47-1.5,11.2-.72,6.59-1.35,13.2-1.95,19.81-.12,1.26-.12,2.54-.05,3.82,.25,4.47-.44,8.83-1.28,13.22-.59,3.09-.79,6.27-.98,9.42-.12,1.97-.92,3.26-2.81,3.58-3.72,.61-7.45,1.28-11.2,1.48-6.59,.34-13.2,.29-19.81,.52-1.58,.05-3.14,.57-4.71,.87-.49,.1-.96,.3-1.45,.34-7.45,.67-14.9,1.31-22.35,1.98-1.38,.13-2.74,.64-4.1,.61-3.31-.08-6.61-.37-9.9-.64-3.65-.29-7.28-.71-10.93-.94-6.2-.39-12.41-.54-18.6-1.09-2.66-.24-5.31-1.09-7.85-1.98-3.51-1.21-6.89-2.77-9.84-5.11-1.55-1.23-2.47-2.74-2.83-4.73-.81-4.59-1.9-9.13-2.52-13.74-.47-3.45-.3-6.98-.55-10.46-.15-2.09-.66-4.15-.81-6.24-.3-4.2-.44-8.42-.67-12.63-.17-2.88-.45-5.73-.55-8.61-.07-1.73,.2-3.48,.2-5.23,0-2.32-.12-4.62-.22-6.94-.05-1.09-.34-2.2-.35-3.3-.05-3.6,.25-7.23-.12-10.78-.3-2.83-1.45-5.57-2.15-8.36-.35-1.4-.62-2.81-.86-4.22-.54-3.31-1.16-6.63-1.5-9.97-.25-2.57-.18-5.18-.13-7.79,.03-1.55,.15-3.11,.5-4.61,.2-.89,.71-1.92,1.4-2.46,3.65-2.89,7.92-4.47,12.46-5.2,2.99-.47,6.09-.42,9.1-.82,1.85-.25,3.65-.84,5.43-1.45,1.48-.5,2.77-.4,3.95,.2l-.02,.03ZM12.64,251.23c.29-.99,.66-1.98,.82-2.99,.05-.3-.39-.91-.74-1.04-2.14-.76-3.73,.54-3.43,2.72,.15,1.11,.44,1.97,1.87,1.45,.39-.13,.87,0,1.31,.03-.54,1.04-1.08,2.09-1.53,2.96,2.27,2.07,4.36,2.34,6.71,.76,.39-.25,1.41,.34,2.09,.66,.34,.17,.54,.62,.66,.76,2-1.31,3.88-2.49,5.72-3.73,1.58-1.06,1.83-2.54,.79-4.14-.79-1.23-3.38-1.78-5.03-.94-1.43,.72-.27,1.75-.08,2.57,.5,2.22-.24,3.33-2.56,3.31-2.46,0-5.03,.13-6.61-2.37h.02Zm-6.24-56.77c.49-.2,.69-.25,.87-.35,2.59-1.5,4.96-1.35,7.21,.47,.52,.42,1.06,.82,1.63,1.14,3.31,1.78,6.61,3.63,9.99,5.26,1.92,.92,3.97,1.85,6.04,2.17,4.91,.76,9.69,2.24,14.75,2.32,8.19,.15,16.4,1.08,24.58,.96,6.46-.1,12.9-1.21,19.34-1.98,6.94-.84,13.87-1.7,20.87-1.51,4.84,.13,9.47-.91,13.99-2.52,2.93-1.04,5.87-2.05,8.73-3.23,2.86-1.19,5.67-2.52,8.41-3.95,.59-.3,1.11-1.31,1.13-2,.03-3.43-.08-6.88-.22-10.31-.05-1.4-.29-2.77-.49-4.64-2,1.73-3.83,1.77-5.83,1.46-.69-.1-1.68,.35-2.22,.87-2.4,2.29-5.16,2.99-8.42,2.64-2.3-.25-4.69,.1-6.41,1.75-2.32,2.24-4.93,2.15-7.58,1.35-1.66-.5-2.96-.44-4.36,.54-3.31,2.29-7.03,2.72-10.83,1.78-1.87-.47-3.51-.35-5.15,.42-1.51,.72-2.83,.61-4.19-.4-2.34-1.72-4.67-1.68-7.05,.07-1.45,1.06-3.06,1.36-4.89,1.06-3.48-.59-6.93-.17-10.43,.22-4.44,.49-8.93,.64-13.4,.62-1.83,0-3.67-.77-5.47-1.31-2.96-.91-5.95-1.73-8.81-2.91-3.19-1.31-6.36-1.82-9.72-1.01-1.88,.45-3.5,.03-4.91-1.29-1.04-.99-2.09-2.02-3.23-2.89-.55-.44-1.35-.76-2.05-.79-1.85-.1-3.73,.1-5.58-.07-2.64-.24-5.28-.71-7.92-1.01-.99-.12-1.66,.1-1.65,1.43,.08,4.25,.89,8.36,2.02,12.43,.29,1.06,.77,2.05,1.21,3.23h.03Zm137.47-36.67c-1.28,.39-2.2,.76-3.16,.98-5.63,1.24-11.28,2.35-16.9,3.68-9.03,2.14-18.23,2.57-27.44,2.89-11.27,.4-22.52,.69-33.78,1.04-.99,.03-1.97,.3-2.96,.42-1.82,.22-3.63,.67-5.43,.59-5.26-.24-10.51-.61-15.76-1.06-8.73-.74-17.3-2.86-26.1-3.01-2.94-.05-5.87-.3-8.79-.55-1.33-.1-1.75,.45-1.8,1.7-.05,1.6-.45,3.21-.37,4.79,.07,1.56,.35,3.19,.92,4.64,.29,.72,1.4,1.43,2.22,1.58,3.04,.55,6.14,.98,9.21,1.26,1.35,.13,2.72-.18,4.09-.22,.74-.02,1.6-.08,2.2,.24,.87,.44,1.63,1.14,2.32,1.85,2.1,2.12,4.24,4,7.55,2.64,.39-.15,.87-.07,1.33-.07,3.51-.07,6.71,1.11,9.9,2.44,6.86,2.83,13.96,4.22,21.42,3.09,4.66-.71,9.28-1.63,14.06-.81,1.13,.2,2.61-.15,3.58-.79,2.86-1.85,5.67-2.25,8.53-.27,1.28,.89,2.44,.81,3.75,.27,1.45-.59,2.89-1.01,4.51-.49,3.88,1.24,7.57,.76,10.95-1.6,1.58-1.09,3.13-1.31,5.01-.55,1.61,.66,3.63,1.24,5.08-.08,2.84-2.59,6.17-3.13,9.75-2.88,2.24,.15,4.17-.42,5.78-2,1.36-1.33,2.96-1.78,4.86-1.65,2.99,.22,4.61-1.43,4.76-4.41,.13-2.93,.49-5.85,.66-8.78,.1-1.58,0-3.16,0-4.94l.05,.05ZM38.59,224.46c.45-.67,.77-1.16,1.13-1.65,1.6-2.29,3.26-2.42,5.16-.39,.52,.57,.96,1.23,1.38,1.87,.94,1.43,1.14,1.45,2.27,.12,1.7-2.02,4.04-2.83,6.02-1.78,1.09,.57,1.9,1.66,2.86,2.49,2.94,2.47,2.96,3.3,5.67-.08,.03-.05,.08-.08,.12-.12,1.87-1.78,3.53-1.77,5.33,.08,.39,.39,.67,.87,1.03,1.31,1.66,2.1,2.12,2.05,4.17,.47,3.56-2.76,6.2-3.16,8.42,.74,.08,.15,.2,.27,.3,.4,.64,.91,1.31,.91,2.03,.12,.79-.86,1.53-1.77,2.39-2.54,2.03-1.82,3.67-1.65,5.33,.45,.3,.39,.62,.79,.96,1.16,1.09,1.16,1.72,1.13,2.59-.24,.54-.84,.92-1.77,1.41-2.64,1.08-1.95,2.12-2.42,4.09-1.38,1.21,.66,2.22,1.75,3.14,2.81,1.03,1.18,1.36,1.24,2.1-.15,.72-1.36,1.33-2.83,2.19-4.1,2.25-3.31,5.73-3.68,8.71-1.04,1.77,1.58,3.32,1.4,4.64-.55,2.84-4.17,6.81-4.46,10.17-.69,1.13,1.24,2.32,1.46,3.88,.84,2.07-.84,2.42-2.71,3.26-4.47,2.54-5.4,3.09-11.18,3.82-16.95,.1-.87-.07-1.78-.13-2.96-1.56,.76-2.71,1.43-3.93,1.9-3.73,1.43-7.5,2.72-11.23,4.15-5.18,1.98-10.46,3.13-16.06,3.18-5.15,.05-10.31,.44-15.42,.96-5.85,.59-11.64,1.8-17.49,2.2-10.69,.72-21.41,.49-32.08-.62-2.15-.22-4.3-.29-6.44-.61-2.3-.35-4.56-.91-6.84-1.41-2.1-.47-4.37-.64-6.27-1.56-4.34-2.09-8.68-4.27-12.66-6.93-2.67-1.78-4.84-2.86-7.42-.2-.07,.07-.2,.1-.3,.13-1.11,.3-1.23,1.08-1.08,2.07,.27,1.75,.45,3.51,.62,5.28,.39,3.75,.82,7.48,1.06,11.23,.2,3.09,2.4,2.99,4.42,2.24,.5-.18,.96-.54,1.43-.84,2.44-1.51,4.1-1.45,6.1,.62,1.06,1.09,1.85,2.47,2.71,3.77,.98,1.48,1.41,1.56,2.72,.44,.81-.69,1.6-1.38,2.47-1.97,2.72-1.87,4.57-1.7,6.91,.61,.91,.89,1.75,1.87,2.64,2.77,.49,.49,1.04,.92,1.72,1.53l-.02-.07Zm102.78-6.93c-.17-.02-.32-.03-.49-.05-.08,.13-.17,.27-.24,.42-2.12,4.66-6.98,5.43-10.43,1.75-.61-.66-1.66-1.06-2.57-1.21-1.98-.32-3.16,.94-4.17,2.46-2.98,4.47-3.28,4.51-7.16,.96-2.24-2.07-4.69-1.82-6.31,.77-.79,1.26-1.36,2.66-2.05,4-1.41,2.77-3.14,2.84-4.94,.29-.59-.84-1.33-1.61-2.14-2.24-.86-.67-1.65-.42-2.17,.59-.5,.98-.99,2-1.63,2.91-1.5,2.17-3.3,2.27-5.08,.34-1.83-1.98-3.68-1.94-5.55,.12-2.81,3.09-.07,.08-.12,.12-2.77,3.06-3.31,3.03-5.77-.25-1.61-2.19-2.94-2.39-5.11-.77-.62,.45-1.14,1.04-1.72,1.58-.98,.92-2.09,1.06-3.19,.34-.74-.49-1.43-1.06-2.03-1.72-1.87-1.98-3.71-2.01-5.52-.07-1.58,1.7-2.99,1.83-4.79,.35-1.24-1.03-2.4-2.14-3.6-3.23-1.11-1.01-2.72-1.23-3.78-.34-.59,.49-1.01,1.16-1.5,1.78-1.24,1.58-2.57,1.61-3.82,.03-.55-.69-.94-1.51-1.46-2.22-1.29-1.7-2.2-1.63-3.16,.24-1.24,2.39-2.12,2.59-4.19,.89-.42-.35-.81-.77-1.16-1.19-4.42-5.2-4.89-5.25-9.99-.79-.92,.81-1.98,1.29-3.01,.55-.91-.64-1.58-1.65-2.3-2.52-.84-1.03-1.53-2.17-2.47-3.09-.77-.76-1.85-1.14-2.89-.4-2.61,1.85-5.35,2.61-8.49,.98,0,.89-.15,1.58,.02,2.17,1.24,4.1,1.45,8.26,.94,12.49-.12,1.03-.05,2.12,.15,3.14,.5,2.67,.94,2.94,3.63,3.16,1.82,.15,3.75,.13,5.4,.77,3.93,1.53,7.87,2.99,12.07,3.36,3.46,.3,6.96,.4,10.44,.27,4.76-.2,9.5-.72,14.24-1.11,.94-.08,1.87-.29,2.81-.32,5.43-.2,10.86-.45,16.29-.5,4.25-.05,8.58,.59,12.76,.08,1.95-.24,3.72-.1,5.58-.13,5.31-.12,10.61-.86,15.91-1.43,4.46-.47,8.88-1.36,13.35-1.51,6-.22,11.82-.94,17.39-3.28,1.01-.42,1.45-.96,1.56-2.05,.45-3.8,1.01-7.57,1.56-11.35,.25-1.72,.59-3.41,.89-5.13h-.02Zm-15.64,43.37c-.3,.5-.55,.91-.79,1.33-3.19,5.43-6.46,6.69-12.19,4.62-1.09-.39-2.1-.99-3.18-1.46-1.51-.66-2.81-.37-3.88,.89-.4,.47-.81,.91-1.18,1.4-1.72,2.34-4.07,3.46-6.91,3.26-5.97-.42-11.92-.98-17.89-1.48-3.55-.3-7-.47-10.31,1.56-2.83,1.73-5.65,2.52-8.68-.49-2.84-2.83-9.48-2.61-12.02,0-2.19,2.24-4.78,2.71-7.48,2.02-3.92-.99-7.77-2.25-11.57-3.63-2.19-.79-4.12-.94-6.22,.2-1.08,.59-2.54,1.26-3.58,.99-3.16-.86-6.52-1.6-8.39-4.83-.15-.27-.49-.45-1.04-.96,.05,.89,.03,1.38,.12,1.85,.54,2.61,.98,5.25,1.7,7.8,.35,1.19,1.06,2.54,2.02,3.26,5.1,3.82,10.81,6.39,17.2,6.93,6.36,.54,12.73,.67,19.1,1.08,3.53,.22,7.06,.64,10.59,.99,3.9,.39,7.79,1.29,11.72,.05,.67-.22,1.43-.1,2.15-.17,4.59-.34,9.18-.62,13.77-1.04,2.98-.29,5.92-.76,8.88-1.19,1.41-.22,2.81-.76,4.2-.82,5.87-.24,11.75-.22,17.62-.52,4.3-.22,8.61-.77,12.9-1.23,1.78-.18,2.54-1.19,2.52-3.04,0-2.03,.17-4.1,.47-6.12,.49-3.4,1.14-6.78,1.66-10.17,.13-.86,.02-1.75,.02-3.06-4.69,5.62-5.36,5.72-11.33,1.98h0Zm-114.3-4.98l-.45,.39c0,.52-.12,1.08,.02,1.56,.55,2.02,.96,4.14,1.85,6.02,1.65,3.53,6.89,5.15,10.32,3.36,2.07-1.08,4.17-1.01,6.29-.34,4.02,1.28,7.99,2.67,12.01,3.93,1.66,.52,3.53,.54,4.73-.72,2.05-2.15,4.59-2.56,7.28-3.16,3.36-.76,6.2,.15,8.49,2.22,1.93,1.75,3.58,1.78,5.62,.71,.64-.34,1.26-.74,1.93-.98,1.45-.5,2.93-1.31,4.39-1.29,4.3,.05,8.63,.4,12.93,.72,2.54,.18,5.06,.57,7.6,.81,3.75,.34,7.28,.08,9.47-3.65,.17-.29,.45-.49,.67-.74,1.33-1.46,2.99-1.92,4.84-1.33,1.26,.4,2.44,1.06,3.67,1.55,4.76,1.88,7.58,1.08,10.29-3.82,.3-.54,.5-1.11,.81-1.65,.98-1.73,2.12-1.78,3.31-.18,.34,.44,.66,.91,1.08,1.26,1.61,1.4,3.93,1.33,5.15-.4,1.08-1.55,1.75-3.4,2.79-5.5-2.46,.07-4.52-.55-6.41,.59-2.14,1.29-4.04,1.16-5.99-.39-.47-.39-1.4-.39-2.09-.29-2.07,.29-4.1,.76-6.17,1.08-2.07,.32-4.15,.59-6.24,.74-.96,.07-2.05,.03-2.88-.37-1.35-.66-2.35-.62-3.45,.42-1.29,1.24-2.74,1.46-4.41,.54-1.4-.79-2.98-.76-4.25,.24-2.96,2.32-5.89,2.09-9,.37-.71-.39-1.8-.64-2.49-.37-5.01,1.95-9.97,.66-14.92-.15-2.44-.4-4.57-.81-6.59,1.23-1.38,1.4-3.38,1.63-5.11,.57-2.22-1.36-4.36-1.19-6.47-.08-2.05,1.06-3.97,.89-5.85-.22-1.04-.61-1.93-.62-2.93,.1-2.17,1.58-4.86,1.92-7.16,1.38-2.61-.61-5.1-1.46-7.82-1.73-1.46-.13-2.84-.39-4.14,.18-1.6,.69-2.62,.37-3.5-1.08-.22-.37-1.01-.82-1.23-.71-2.15,1.16-4.14,1.18-5.99-.84l-.02,.02Zm90.55-92.86c.86,.07,1.43,.18,2,.13,3.8-.35,7.63-.55,11.4-1.14,5.52-.87,11-1.98,16.48-3.06,2.61-.52,5.18-1.18,7.77-1.8,.64-.15,1.31-.35,1.87-.69,1.14-.67,1.11-1.61-.07-2.24-.87-.45-1.83-.81-2.77-1.08-6.59-1.88-13.33-2.05-20.11-1.78-.69,.03-1.43,.45-2.02,.87-1.31,.96-2.57,2-3.8,3.08-.49,.44-1.06,1.03-1.13,1.61-.27,2.22-.77,2.77-3.01,2.67-.87-.03-1.75-.29-2.62-.37-.39-.03-.98-.07-1.18,.17-.92,1.06-1.73,2.22-2.79,3.63l-.02-.02Zm-44.39-15.2c.15,.08,.3,.17,.45,.25-.17,.4-.44,.77-.5,1.19-.24,1.68-.71,3.4-.5,5.04,.22,1.83,1.24,2.12,2.89,1.26,3.58-1.87,7.15-3.78,10.78-5.55,.92-.45,2.14-.57,3.19-.47,2.19,.2,4.36-1.08,4.67-3.25,.12-.81-.18-2.03-.76-2.49-1.21-.94-2.66-1.36-4.37-.86-1.93,.57-4,.94-6.02,.99-2.74,.08-5.28,.45-7.52,2.19-.87,.67-1.46,.55-1.7-.71-.24-1.16-2.67-2.52-3.85-2.29-2.61,.54-5.1,1.31-6.89,4.34,3.99-.89,5.47,2.59,8.07,4.29,.77-1.46,1.41-2.71,2.07-3.93l-.02-.02Zm-30.44,109.02c.87-.08,1.51-.22,2.15-.17,.91,.07,2.05,0,2.64,.5,2.47,2.09,5.16,1.48,7.48,.34,2.25-1.11,4.05-1.63,6.31-.22,1.5,.92,3.06,.4,4.44-.92-.4-.29-.71-.49-.99-.72-1.11-.91-.59-1.77,.15-2.54,1.33-1.36,2.69-2.71,4.05-4.09-2.02-1.45-3.9-1.18-5.16,.37-.84,1.03-1.7,2.05-2.69,2.93-2.46,2.12-5.73,1.77-7.48-.96-.92-1.45-1.98-1.56-3.38-1.23-3.53,.86-5.8,3.18-7.53,6.71h.02Zm53.2-.87c.98-.22,1.65-.45,2.32-.5,.98-.07,2.22-.37,2.88,.08,3.38,2.3,6.42,1.78,9.4-.64,.35-.29,.92-.77,.86-.98-.22-.62-.61-1.26-1.11-1.68-.32-.27-.98-.08-1.45-.24-.54-.17-1.01-.49-1.51-.74,.45-.39,.84-.87,1.36-1.14,1.72-.89,3.5-1.66,5.2-2.57,.37-.2,.54-.76,.79-1.16-.4-.25-.77-.55-1.21-.72-.29-.12-.66-.03-.99-.08-2.29-.32-4.59-.57-6.86-1.03-1.19-.24-1.65,.13-2.12,1.16-.69,1.53-1.48,3.06-2.49,4.39-1.48,1.93-3.21,3.7-5.08,5.82l.02,.03Zm18.53-3.08c2.76,1.11,5.16,.22,7.23-1.5,2.72-2.27,5.26-4.74,7.94-7.06,.54-.47,1.41-1.11,1.93-.98,1.73,.47,2.14-.84,2.88-1.9-6.47,.02-12.76,1.29-19.09,2.49,.74,.37,1.46,.47,2.15,.35,1.18-.2,2.12,.02,2.66,1.14,.5,1.06-.3,1.55-.94,2.2-.45,.47-.81,1.28-.81,1.92,.02,2.17-.55,2.94-2.67,3.18-.42,.05-.86,.1-1.28,.15Zm-38.52-109.7c.15,.02,.32,.08,.47,.07,5.16-.92,10.29-2.09,15.47-2.72,2.4-.3,4.09-1.48,5.83-2.79,.3-.24,.62-1.03,.49-1.18-.59-.69-1.28-1.46-2.07-1.73-.49-.17-1.43,.42-1.88,.92-1.48,1.61-2.24,1.8-3.92,.44-.76-.62-1.26-.52-2.05-.07-1.23,.71-2.54,1.36-3.88,1.78-1.98,.62-4.07,.92-6.07,1.53-2.12,.64-2.94,2.05-2.39,3.77v-.02Zm77.54,98.66l-.5-.07c-.44,1.04-.89,2.09-1.29,3.14-1.63,4.22-3.63,5.2-8.02,3.99-.47-.13-1.18-.15-1.51,.12-1.06,.84-2.02,1.83-3.13,2.89,.98,.79,1.68,1.53,2.54,1.98,.62,.32,1.68,.55,2.15,.25,2.32-1.58,4.88-1.31,7.4-1.24,1.13,.03,1.68-.4,1.78-1.46,.29-2.71,.59-5.4,.82-8.11,.05-.49-.17-.99-.25-1.48l.02-.02Zm-59.02,2.86c-1.75-.79-4.56-.42-5.01,.96-.71,2.19-1.21,4.47-1.51,6.74-.1,.69,.52,1.77,1.14,2.19,2.24,1.56,7.03-.32,7.77-2.66-1.24-1.03-3.01-1.77-3.38-2.94-.39-1.19,.61-2.83,1.01-4.29h-.02Zm-32.61,.86c-2.19,.17-4.27,.35-6.36,.47-2.1,.12-4.2,.29-6.31,.25-2-.03-4-.27-6.14-.42,.86,1.66,1.51,2.94,2.03,3.93,2.86-.62,5.63-1.19,8.39-1.87,1.26-.32,1.75,.08,1.82,1.33,.13,2.2,2.03,3.21,3.95,2.15,2.46-1.36,3.16-2.89,2.61-5.85Zm2.37-.45c-.03,.22-.07,.45-.12,.67,.59,.15,1.16,.34,1.75,.44,1.03,.17,2.17,.07,3.09,.47,1.51,.67,2.79,.35,4.3-.02,1.53-.39,3.6-.66,4.78,.08,1.88,1.18,3.14,.87,4.74-.15,.87-.55,1.93-.82,2.89-1.26,.35-.17,.67-.44,1.01-.66-.03-.17-.08-.34-.12-.5-7.47-.4-14.88,.61-22.31,.92h-.02Zm66.34,8.39c-1.36-3.08,.42-5.03,2.62-6.86-.91-1.08-1.66-1.61-2.81-.49-.87,.84-1.83,1.58-2.74,2.4-1.82,1.66-3.62,3.35-5.75,5.35,1.06,.35,1.82,.86,2.51,.77,2-.25,3.97-.72,6.17-1.16v-.02Zm-44.19-6.46c-1.45,.66-2.74,1.16-3.95,1.83-.47,.25-1.04,.91-1.03,1.33,.12,1.55,.47,3.08,.74,4.61,0,.03,.08,.07,.13,.07,1.4,.35,2.81,.71,4.1,1.04,0,0,0-8.88,0-8.88Zm-7.94,7.72c-1.26-1.38-1.14-2.89-.32-4.56,.2-.4-.22-1.38-.64-1.73-1.08-.89-3.06-.57-4.05,.34,.67,1.48,1.93,2.96,1.8,4.3-.13,1.28-1.73,2.4-2.76,3.68,1.21,2.05,4.05,.4,5.97-2.03Zm66.51-14.13c3.41,1.48,3.43,1.56,1.9,4.91-.27,.57-.45,1.18-.72,1.85,1.68,.47,2.57-.4,3.14-1.48,1.43-2.66,1.65-5.99,4.67-7.75l-.32-.35c-2.77,.91-5.55,1.82-8.68,2.83Zm-2.98,6.12c-.15-.27-.3-.54-.45-.79-.89,.4-1.77,.82-2.67,1.19-.64,.27-1.28,.52-1.93,.71-.98,.27-2.05,.34-2.94,.77-1.18,.57-2.2,1.48-1.73,3.01,.27,.87,2.35,1.08,3.63,.13,2.12-1.55,4.07-3.33,6.09-5.01l.02-.02Zm-111.02-4.54c-2.05-.24-3.7-.47-5.38-.61-1.03-.08-1.93,.13-1.82,1.5,.13,1.53,1.01,2.3,2.2,2.34,2.15,.05,3.36-1.29,4.99-3.21v-.02Zm35.72,11.72c2.24,1.13,4.02,.82,5.78,.1,.89-.37,1.4-1.08,.72-1.97-.66-.87-1.31-2.39-2.64-1.61-1.38,.79-2.42,2.15-3.85,3.48h-.02Zm77.02-11c-.07-.17-.15-.34-.22-.5-2.34-.52-4.62-.07-6.86,.72-.49,.17-.81,.84-1.21,1.28,.61,.22,1.26,.71,1.83,.62,1.58-.2,3.16-.55,4.69-1.01,.64-.18,1.18-.72,1.77-1.11h0Zm-109.67,8.93c.32-.25,1.31-.62,1.43-1.19,.25-1.23-1.04-2.3-2.4-2.3-1.19,0-2.32,.15-2.34,1.7,0,2.02,1.63,1.51,3.31,1.82v-.02Zm84.7-94.37c-2.74-.5-3.65,.07-4.27,2.59-.1,.37-.1,.99,.13,1.18,.27,.2,.86,.18,1.23,.03,1.65-.67,2.67-1.87,2.93-3.78l-.02-.02Zm7.9-3.88c1.48,.24,2.46-.4,3.26-1.36,.2-.25,.32-.79,.18-1.04s-.62-.4-.98-.44c-1.43-.12-2.25,.81-2.49,2.84h.02Zm-27.93,94.4c-.74-.87-1.18-1.4-1.61-1.92-.61,.69-1.21,1.36-1.82,2.05,.55,.42,1.08,1.11,1.68,1.19,.44,.05,.98-.69,1.77-1.31l-.02-.02Zm23.54-90.82c.05,.2,.08,.4,.13,.62,.71,.12,1.43,.4,2.1,.29,.57-.08,1.06-.64,1.58-.98-.67-.32-1.33-.87-2-.87-.61,0-1.21,.61-1.82,.96v-.02Zm-21.98,90.43c.17,.02,.34,.05,.5,.07,.29-.62,.64-1.23,.81-1.88,.08-.35-.05-.99-.3-1.13-.39-.2-.98-.18-1.4-.03-.18,.07-.22,.76-.17,1.13,.1,.62,.35,1.23,.54,1.85h.02Zm-61.39-2.1c-1.95-1.38-2.62-1.26-4.17,.61,1.5-.22,2.61-.37,4.17-.61Zm26.13-91.26c-2.03-.29-2.62,.37-2.24,2.42,.91-.98,1.56-1.7,2.24-2.42Zm37.65-5.4c-2.1-.44-2.57,.05-2,1.78,.74-.66,1.36-1.21,2-1.78Z"/>
    <path class="cls-2" d="M71.65,157.99c0,1.75-1.53,3.16-3.38,3.09-1.18-.03-2.05-.47-2.03-1.85,.03-1.68,1.87-4.04,3.11-3.99,1.31,.05,2.32,1.23,2.3,2.74Zm-3.43,2.62c.92-1.08,1.77-1.68,1.97-2.47,.1-.37-1.04-1.06-1.61-1.6-.52,.74-1.18,1.43-1.51,2.24-.12,.29,.54,.89,1.16,1.83Z"/>
    <path class="cls-2" d="M95.16,156.21c.05,2-1.16,3.72-2.49,4.1-1.38,.39-2.27-.35-1.88-1.7,.29-.99,.71-2,1.31-2.83,.39-.52,1.35-1.08,1.83-.94,.62,.18,1.03,1.08,1.24,1.35l-.02,.02Zm-3.68,2.81c.25,.15,.52,.3,.77,.45,.52-.71,1.11-1.38,1.48-2.17,.12-.24-.4-.77-.64-1.18-.34,.2-.82,.34-.96,.64-.32,.71-.45,1.48-.66,2.24v.02Z"/>
  </g>
</svg>